<svg width="14" height="17" viewBox="0 0 14 17" fill="none" xmlns="http://www.w3.org/2000/svg">
<g id="fa:500px" clip-path="url(#clip0_14_28)">
<path id="Vector" d="M13.2905 14.6758L13.2336 14.7327C12.5189 15.4474 11.6999 16.0007 10.7766 16.3929C9.80261 16.7976 8.80019 17 7.76931 17C6.72579 17 5.72337 16.7976 4.76206 16.3929C3.82605 15.9944 3.00704 15.441 2.30503 14.7327C1.59037 14.0244 1.03698 13.2085 0.64487 12.2852C0.379245 11.6337 0.208486 11.0361 0.132593 10.4922C0.107296 10.3151 0.259081 10.2013 0.58795 10.1507C0.910495 10.1001 1.08758 10.1633 1.1192 10.3404C1.12552 10.3467 1.12869 10.3594 1.12869 10.3783C1.24253 10.9475 1.38799 11.4503 1.56507 11.8867C1.88129 12.6709 2.36195 13.3856 3.00704 14.0307C3.62683 14.6505 4.34149 15.1311 5.15101 15.4727C5.98583 15.8268 6.8586 16.0039 7.76931 16.0039C8.6737 16.0039 9.54647 15.8268 10.3876 15.4727C11.1971 15.1248 11.9086 14.6442 12.5221 14.0307L12.579 13.9738C12.6423 13.9105 12.7213 13.8916 12.8162 13.9169C12.8921 13.9358 12.9964 14.0054 13.1292 14.1256C13.3569 14.3596 13.4107 14.543 13.2905 14.6758ZM8.81284 8.84152L8.18672 9.46763L8.78438 10.0653C8.91719 10.1981 8.89506 10.3531 8.71797 10.5301C8.61046 10.6376 8.50927 10.6914 8.4144 10.6914C8.35116 10.6914 8.29108 10.6598 8.23416 10.5965L7.64599 10.0179L7.01987 10.644C6.98825 10.6756 6.94082 10.6914 6.87757 10.6914C6.78271 10.6914 6.68468 10.6408 6.58349 10.5396L6.56451 10.5206C6.45067 10.4258 6.39375 10.3341 6.39375 10.2455C6.39375 10.2013 6.41905 10.1475 6.46965 10.0843L7.09576 9.46763L6.46965 8.84152C6.36846 8.74033 6.41273 8.59803 6.60246 8.41462C6.7163 8.30078 6.81433 8.24386 6.89654 8.24386C6.93449 8.24386 6.9756 8.25967 7.01987 8.2913L7.6365 8.91741L8.25313 8.30078C8.36697 8.19327 8.51875 8.23438 8.70849 8.42411C8.87925 8.59487 8.91403 8.734 8.81284 8.84152ZM13.281 9.38225C13.281 10.1285 13.1356 10.8495 12.8446 11.5452C12.5601 12.2093 12.1616 12.7974 11.6493 13.3097C11.1434 13.8157 10.5521 14.2141 9.87534 14.505C9.19863 14.7959 8.47765 14.9414 7.71239 14.9414C6.94714 14.9414 6.22616 14.7959 5.54945 14.505C4.87274 14.2141 4.2814 13.8157 3.77545 13.3097C3.25685 12.7911 2.86157 12.2029 2.58962 11.5452C2.49476 11.3365 2.44733 11.21 2.44733 11.1657H2.43784C2.38092 10.995 2.51689 10.8558 2.84576 10.7483C3.16198 10.6471 3.35172 10.6851 3.41496 10.8622C3.64896 11.4883 3.9557 12.0164 4.33516 12.4464H4.34465V9.2115C4.36362 8.35138 4.68617 7.61775 5.31228 7.0106C5.97634 6.35919 6.77638 6.03348 7.71239 6.03348C8.64208 6.03348 9.43579 6.35919 10.0935 7.0106C10.7513 7.66202 11.0801 8.4494 11.0801 9.37277C11.0801 10.3025 10.7497 11.0962 10.0888 11.7539C9.42789 12.4116 8.63576 12.7405 7.71239 12.7405C7.34558 12.7405 6.99141 12.6899 6.64989 12.5887C6.47281 12.5192 6.4317 12.3263 6.52657 12.01C6.62776 11.6875 6.76689 11.5515 6.94398 11.6021L7.07679 11.6306C7.16533 11.6496 7.26968 11.6685 7.38985 11.6875C7.51001 11.7065 7.60488 11.716 7.67445 11.716C8.33218 11.716 8.88873 11.4899 9.34409 11.0377C9.79945 10.5855 10.0271 10.0337 10.0271 9.38225C10.0271 8.74349 9.79945 8.20275 9.34409 7.76004C8.89506 7.31101 8.34167 7.0865 7.68393 7.0865C7.00722 7.0865 6.44435 7.33947 5.99532 7.84542C5.59056 8.30078 5.38817 8.80673 5.38817 9.36328V13.2812C6.08386 13.705 6.84911 13.9169 7.68393 13.9169C8.29108 13.9169 8.87608 13.8014 9.43896 13.5706C10.0018 13.3398 10.4951 13.0125 10.9189 12.5887C11.3426 12.165 11.6699 11.6749 11.9007 11.1183C12.1316 10.5618 12.247 9.98307 12.247 9.38225C12.247 8.13002 11.8011 7.05804 10.9094 6.16629C10.024 5.28088 8.95198 4.83817 7.69342 4.83817C6.42854 4.83817 5.35339 5.28088 4.46797 6.16629C4.13278 6.50149 3.88929 6.7766 3.7375 6.99163L3.71853 7.0106C3.66794 7.08017 3.62683 7.12919 3.59521 7.15765C3.56358 7.1861 3.4956 7.21615 3.39124 7.24777C3.28689 7.27939 3.16515 7.2699 3.02601 7.21931C2.8932 7.18769 2.77778 7.13551 2.67975 7.06278C2.58172 6.99005 2.53271 6.90625 2.53271 6.81138V0.360491C2.53271 0.265625 2.56591 0.181827 2.63231 0.109096C2.69872 0.0363653 2.78568 0 2.8932 0H11.213C11.4027 0 11.4976 0.173921 11.4976 0.521763C11.4976 0.869606 11.4027 1.04353 11.213 1.04353H3.51931V5.62556H3.5288C3.78178 5.35993 4.10432 5.09431 4.49643 4.82868C4.88855 4.56306 5.23006 4.37016 5.52099 4.25C6.21035 3.95908 6.94082 3.81362 7.71239 3.81362C8.47765 3.81362 9.19863 3.95908 9.87534 4.25C10.5521 4.54092 11.1434 4.93936 11.6493 5.44531C12.1616 5.95759 12.5601 6.54576 12.8446 7.20982C13.1356 7.91815 13.281 8.6423 13.281 9.38225ZM12.9869 3.87054C13.0439 3.92113 13.0723 3.97805 13.0723 4.04129C13.0723 4.10454 13.0549 4.16146 13.0202 4.21205C12.9854 4.26265 12.9332 4.32906 12.8636 4.41127C12.6992 4.57571 12.5759 4.65792 12.4936 4.65792C12.4367 4.65792 12.3861 4.63579 12.3419 4.59152C11.6715 4.016 11.0169 3.59542 10.3781 3.3298C9.56861 2.97563 8.69584 2.79855 7.75983 2.79855C6.91868 2.79855 6.09018 2.9535 5.27433 3.26339C5.10358 3.32664 4.96128 3.20964 4.84744 2.91239C4.79052 2.75428 4.76522 2.63411 4.77154 2.5519C4.79052 2.45071 4.84111 2.38746 4.92333 2.36217C5.7455 2.00167 6.691 1.82143 7.75983 1.82143C8.79703 1.82143 9.79629 2.02381 10.7576 2.42857C11.624 2.79539 12.3672 3.27604 12.9869 3.87054Z" fill="white"/>
</g>
<defs>
<clipPath id="clip0_14_28">
<rect width="13.3571" height="17" fill="white"/>
</clipPath>
</defs>
</svg>
