<svg width="18" height="18" viewBox="0 0 18 18" fill="none" xmlns="http://www.w3.org/2000/svg">
<g id="fa:facebook-square" clip-path="url(#clip0_21_7)">
<path id="Vector" d="M14.625 0C15.5547 0 16.3496 0.330078 17.0098 0.990234C17.6699 1.65039 18 2.44531 18 3.375V14.625C18 15.5547 17.6699 16.3496 17.0098 17.0098C16.3496 17.6699 15.5547 18 14.625 18H12.4219V11.0273H14.7539L15.1055 8.30859H12.4219V6.57422C12.4219 6.13672 12.5137 5.80859 12.6973 5.58984C12.8809 5.37109 13.2383 5.26172 13.7695 5.26172L15.1992 5.25V2.82422C14.707 2.75391 14.0117 2.71875 13.1133 2.71875C12.0508 2.71875 11.2012 3.03125 10.5645 3.65625C9.92773 4.28125 9.60938 5.16406 9.60938 6.30469V8.30859H7.26562V11.0273H9.60938V18H3.375C2.44531 18 1.65039 17.6699 0.990234 17.0098C0.330078 16.3496 0 15.5547 0 14.625V3.375C0 2.44531 0.330078 1.65039 0.990234 0.990234C1.65039 0.330078 2.44531 0 3.375 0H14.625Z" fill="white"/>
</g>
<defs>
<clipPath id="clip0_21_7">
<rect width="18" height="18" fill="white"/>
</clipPath>
</defs>
</svg>
